<?xml version="1.0" encoding="utf-8"?>
<!-- Generator: Adobe Illustrator 24.2.1, SVG Export Plug-In . SVG Version: 6.00 Build 0)  -->
<svg version="1.1" id="Layer_1" xmlns="http://www.w3.org/2000/svg" xmlns:xlink="http://www.w3.org/1999/xlink" x="0px" y="0px"
	 viewBox="0 0 250 250" style="enable-background:new 0 0 250 250;" xml:space="preserve">
<style type="text/css">
	.st0{fill:#FFFFFF;}
</style>
<path class="st0" d="M242.29,118.9c-3.63-3.63-9.51-3.62-13.13-0.01l-94.82,94.82V14.8c0-5.13-4.15-9.28-9.28-9.28
	s-9.28,4.16-9.28,9.28v198.91L20.96,118.9c-3.63-3.63-9.5-3.63-13.13,0c-3.62,3.62-3.62,9.5,0,13.12l110.64,110.64
	c0.87,0.87,1.91,1.57,3.06,2.04c0.04,0.02,0.08,0.02,0.12,0.04c1.05,0.42,2.2,0.66,3.4,0.66c1.2,0,2.34-0.25,3.39-0.66
	c0.04-0.02,0.09-0.02,0.13-0.04c1.14-0.47,2.16-1.15,3.02-2c0.01-0.01,0.01-0.01,0.02-0.01l110.66-110.66
	C245.91,128.41,245.91,122.53,242.29,118.9z"/>
</svg>
