<?xml version="1.0" encoding="utf-8"?>
<!-- Generator: Adobe Illustrator 24.2.1, SVG Export Plug-In . SVG Version: 6.00 Build 0)  -->
<svg version="1.1" id="Layer_1" xmlns="http://www.w3.org/2000/svg" xmlns:xlink="http://www.w3.org/1999/xlink" x="0px" y="0px"
	 viewBox="0 0 250 250" style="enable-background:new 0 0 250 250;" xml:space="preserve">
<style type="text/css">
	.st0{fill:#A50238;}
</style>
<path class="st0" d="M233.49,115.9H38.48l92.95-92.95c3.55-3.55,3.55-9.32,0-12.87c-3.56-3.56-9.31-3.56-12.87,0L10.09,118.55
	c-0.85,0.85-1.53,1.86-1.99,2.99c-0.02,0.04-0.02,0.08-0.04,0.12c-0.41,1.04-0.65,2.16-0.65,3.34s0.24,2.3,0.65,3.34
	c0.01,0.04,0.02,0.08,0.04,0.12c0.46,1.13,1.14,2.15,1.99,2.99l108.48,108.48c1.78,1.78,4.1,2.67,6.43,2.67s4.66-0.89,6.43-2.66
	c3.55-3.56,3.55-9.32,0-12.87L38.48,134.1h195.01c5.02,0,9.1-4.07,9.1-9.1C242.59,119.97,238.51,115.9,233.49,115.9z"/>
</svg>
