<?xml version="1.0" encoding="utf-8"?>
<!-- Generator: Adobe Illustrator 24.2.1, SVG Export Plug-In . SVG Version: 6.00 Build 0)  -->
<svg version="1.1" id="Layer_1" xmlns="http://www.w3.org/2000/svg" xmlns:xlink="http://www.w3.org/1999/xlink" x="0px" y="0px"
	 viewBox="0 0 300 300" style="enable-background:new 0 0 300 300;" xml:space="preserve">
<style type="text/css">
	.st0{opacity:0.6;}
	.st1{fill:#FFFFFF;}
</style>
<g class="st0">
	<path class="st1" d="M290.93,256.14c3.15,0,5.7-2.55,5.7-5.7v-46.66c0-2.01-1.1-3.93-2.84-4.93l-48.73-28.21
		c-2.03-1.18-4.58-0.99-6.41,0.48c-2.29,1.83-5.58,1.64-7.65-0.43c-1.31-1.31-1.9-3.11-1.62-4.94c0.35-2.32-0.75-4.61-2.78-5.79
		l-43.35-25.1c-5.31-3.07-11.48-3.65-17.05-1.99c2.92-13.86,1.97-28.38-2.86-41.83L133.61,8.27c-0.81-2.26-2.96-3.77-5.36-3.77
		H44.48c-2.41,0-4.55,1.51-5.36,3.77L9.39,91.03c-6.09,16.95-6.02,35.58,0.2,52.48c7.96,21.64,25.01,38.42,46.78,46.02
		c4.23,1.47,8.54,2.63,12.92,3.46v64.07c0,3.31-1.97,6.27-5.02,7.54L38.02,275.6c-4.79,2-7.42,6.95-6.4,12.04
		c1.02,5.09,5.36,8.64,10.55,8.64h88.38c2.99,0,5.69-1.18,7.64-3.15c3.21,1.99,7,3.15,11.05,3.15h11.04c3.15,0,5.7-2.55,5.7-5.7
		c0-3.17,2.58-5.76,5.76-5.76c3.17,0,5.76,2.58,5.76,5.76c0,3.15,2.55,5.7,5.7,5.7h92.42c11.59,0,21.02-9.43,21.02-21.02v-1.91
		c0-3.15-2.55-5.7-5.7-5.7c-3.17,0-5.76-2.58-5.76-5.76C285.17,258.72,287.75,256.14,290.93,256.14z M177.53,144.72l40.45,23.42
		c0.36,3.96,2.09,7.75,4.95,10.61c5.19,5.19,12.93,6.41,19.33,3.45l27.45,15.89H140.53c3.23-18.94,11.5-36.57,24.04-51.13
		C167.82,143.18,173.27,142.25,177.53,144.72z M205.62,209.48c-1.97,3.39-5.64,5.68-9.83,5.68c-4.2,0-7.86-2.29-9.83-5.68H205.62z
		 M103.48,192.99c4.36-0.83,8.66-1.98,12.88-3.45c5.84-2.04,11.34-4.74,16.41-8.02c-1.79,5.86-3.14,11.89-4,18.02l-0.49,3.44
		c-0.04,0.26-0.06,0.53-0.06,0.79v69.11l-19.73-8.24c-3.05-1.28-5.02-4.24-5.02-7.54V192.99z M48.49,15.9h75.75l25.63,71.37h-14.54
		l-11.06-30.79c-1.06-2.96-4.33-4.5-7.29-3.44c-2.96,1.06-4.5,4.33-3.44,7.29l9.68,26.94H22.86L48.49,15.9z M20.28,139.59
		c-4.84-13.15-5.29-27.53-1.38-40.92h134.92c3.91,13.39,3.46,27.77-1.38,40.92c-6.78,18.43-21.3,32.72-39.84,39.19
		c-16.92,5.91-35.55,5.91-52.47,0C41.59,172.31,27.06,158.02,20.28,139.59z M45.36,284.88l23.3-9.75
		c7.3-3.05,12.02-10.14,12.02-18.06v-62.64c1.89,0.12,3.79,0.18,5.68,0.18c1.91,0,3.81-0.06,5.72-0.18v62.68
		c0,7.92,4.72,15.01,12.03,18.06l23.25,9.71H45.36z M273.77,261.89c0,7.32,4.61,13.59,11.08,16.04c-1.16,4.01-4.87,6.95-9.24,6.95
		h-87.69c-2.36-6.66-8.72-11.46-16.18-11.46c-7.46,0-13.83,4.79-16.18,11.46h-6.32c-5.3,0-9.62-4.31-9.62-9.62v-65.78h34.1
		c2.54,9.81,11.46,17.08,22.05,17.08s19.52-7.27,22.05-17.08h67.39v36.23C278.56,248.06,273.77,254.43,273.77,261.89z"/>
	<path class="st1" d="M253.86,223.05c-1.5,0-2.97,0.61-4.03,1.67s-1.67,2.53-1.67,4.03c0,1.5,0.61,2.97,1.67,4.03
		c1.06,1.06,2.53,1.67,4.03,1.67c1.5,0,2.97-0.61,4.03-1.67c1.06-1.06,1.67-2.53,1.67-4.03c0-1.5-0.61-2.97-1.67-4.03
		C256.83,223.66,255.36,223.05,253.86,223.05z"/>
	<path class="st1" d="M164.63,239c-1.5,0-2.97,0.61-4.03,1.67c-1.06,1.06-1.67,2.52-1.67,4.03c0,1.5,0.61,2.97,1.67,4.03
		c1.06,1.06,2.53,1.67,4.03,1.67s2.97-0.61,4.03-1.67c1.06-1.06,1.67-2.53,1.67-4.03s-0.61-2.97-1.67-4.03
		C167.6,239.61,166.13,239,164.63,239z"/>
	<path class="st1" d="M204.8,258.09c-1.5,0-2.97,0.61-4.03,1.67c-1.06,1.06-1.67,2.53-1.67,4.03c0,1.5,0.61,2.97,1.67,4.03
		c1.06,1.06,2.53,1.67,4.03,1.67c1.5,0,2.97-0.61,4.03-1.67c1.06-1.06,1.67-2.53,1.67-4.03c0-1.5-0.61-2.97-1.67-4.03
		C207.77,258.7,206.31,258.09,204.8,258.09z"/>
	<path class="st1" d="M242.47,242.71c-9.43,0-17.1,7.67-17.1,17.1c0,9.43,7.67,17.1,17.1,17.1c9.43,0,17.1-7.67,17.1-17.1
		C259.56,250.38,251.89,242.71,242.47,242.71z M242.47,265.5c-3.14,0-5.7-2.56-5.7-5.7c0-3.14,2.56-5.7,5.7-5.7
		c3.14,0,5.7,2.56,5.7,5.7C248.17,262.95,245.61,265.5,242.47,265.5z"/>
	<path class="st1" d="M111.46,43.35c1.5,0,2.97-0.6,4.03-1.67c1.06-1.06,1.67-2.53,1.67-4.03s-0.61-2.97-1.67-4.03
		c-1.06-1.06-2.53-1.67-4.03-1.67c-1.5,0-2.97,0.61-4.03,1.67c-1.06,1.06-1.67,2.53-1.67,4.03c0,1.5,0.61,2.97,1.67,4.03
		C108.49,42.75,109.97,43.35,111.46,43.35z"/>
</g>
</svg>
