<?xml version="1.0" encoding="utf-8"?>
<!-- Generator: Adobe Illustrator 24.2.1, SVG Export Plug-In . SVG Version: 6.00 Build 0)  -->
<svg version="1.1" id="Layer_1" xmlns="http://www.w3.org/2000/svg" xmlns:xlink="http://www.w3.org/1999/xlink" x="0px" y="0px"
	 viewBox="0 0 250 287.8" style="enable-background:new 0 0 250 287.8;" xml:space="preserve">
<style type="text/css">
	.st0{fill:#FFFFFF;}
</style>
<g>
	<path class="st0" d="M2.84,40.09C1.27,40.09,0,38.81,0,37.25V14.2C0,6.37,6.37,0,14.2,0h23.4c1.57,0,2.84,1.27,2.84,2.84
		s-1.27,2.84-2.84,2.84H14.2c-4.7,0-8.52,3.82-8.52,8.52v23.04C5.68,38.81,4.41,40.09,2.84,40.09z"/>
</g>
<g>
	<path class="st0" d="M247.16,40.09c-1.57,0-2.84-1.27-2.84-2.84V14.2c0-4.7-3.82-8.52-8.52-8.52h-23.4c-1.57,0-2.84-1.27-2.84-2.84
		S210.83,0,212.4,0h23.4c7.83,0,14.2,6.37,14.2,14.2v23.04C250,38.81,248.73,40.09,247.16,40.09z"/>
</g>
<g>
	<path class="st0" d="M37.6,287.8H14.2c-7.83,0-14.2-6.37-14.2-14.2v-23.04c0-1.57,1.27-2.84,2.84-2.84s2.84,1.27,2.84,2.84v23.04
		c0,4.7,3.82,8.52,8.52,8.52h23.4c1.57,0,2.84,1.27,2.84,2.84S39.17,287.8,37.6,287.8z"/>
</g>
<g>
	<path class="st0" d="M235.8,287.8h-23.4c-1.57,0-2.84-1.27-2.84-2.84s1.27-2.84,2.84-2.84h23.4c4.7,0,8.52-3.82,8.52-8.52v-23.04
		c0-1.57,1.27-2.84,2.84-2.84c1.57,0,2.84,1.27,2.84,2.84v23.04C250,281.42,243.63,287.8,235.8,287.8z"/>
</g>
<g>
	<g>
		<path class="st0" d="M151.81,193.63c-0.82,0-1.62,0.33-2.2,0.91c-0.58,0.58-0.91,1.38-0.91,2.2s0.33,1.62,0.91,2.2
			c0.58,0.58,1.38,0.91,2.2,0.91s1.62-0.33,2.2-0.91c0.58-0.58,0.91-1.38,0.91-2.2s-0.33-1.62-0.91-2.2
			C153.44,193.96,152.63,193.63,151.81,193.63z"/>
	</g>
	<g>
		<path class="st0" d="M145.65,136.4c-5.55-9.91-8.48-21.14-8.48-32.5V70.52c0-3.55-2.89-6.44-6.44-6.44h-11.51
			c-3.55,0-6.44,2.89-6.44,6.44v33.41c0,11.34-2.93,22.56-8.46,32.47l-0.01,0.02c-6.05,10.82-9.25,23.1-9.25,35.5v42.76
			c0,4.98,4.05,9.03,9.03,9.03h41.81c4.98,0,9.03-4.05,9.03-9.03v-6.87c0-1.72-1.4-3.12-3.12-3.12c-1.72,0-3.12,1.4-3.12,3.12v6.87
			c0,1.54-1.25,2.79-2.79,2.79H104.1c-1.54,0-2.79-1.25-2.79-2.79v-42.76c0-11.34,2.93-22.56,8.46-32.47l0.01-0.02
			c4.84-8.65,7.85-18.23,8.87-28.05h12.68c1.02,9.83,4.04,19.42,8.89,28.07c5.55,9.9,8.48,21.14,8.48,32.5v11.77
			c0,1.72,1.4,3.12,3.12,3.12c1.72,0,3.12-1.4,3.12-3.12v-11.77C154.93,159.53,151.72,147.23,145.65,136.4z M119.03,70.52
			c0-0.11,0.09-0.2,0.2-0.2h11.51c0.11,0,0.2,0.09,0.2,0.2v8.52h-11.91V70.52z M119.02,105.14c0.01-0.4,0.01-0.81,0.01-1.21V85.27
			h11.91v18.63c0,0.41,0,0.82,0.01,1.24H119.02z"/>
	</g>
	<g>
		<path class="st0" d="M110.64,160.5c-1.72,0-3.12,1.4-3.12,3.12v40.18c0,1.72,1.4,3.12,3.12,3.12h28.72c1.72,0,3.12-1.4,3.12-3.12
			v-40.18c0-1.72-1.4-3.12-3.12-3.12H110.64z M136.24,200.68h-22.48v-33.94h22.48V200.68z"/>
	</g>
</g>
</svg>
