<?xml version="1.0" encoding="utf-8"?>
<!-- Generator: Adobe Illustrator 24.2.1, SVG Export Plug-In . SVG Version: 6.00 Build 0)  -->
<svg version="1.1" id="Layer_1" xmlns="http://www.w3.org/2000/svg" xmlns:xlink="http://www.w3.org/1999/xlink" x="0px" y="0px"
	 viewBox="0 0 320.14 327.8" style="enable-background:new 0 0 320.14 327.8;" xml:space="preserve">
<style type="text/css">
	.st0{opacity:0.4;fill:#FFFFFF;}
	.st1{fill:#FFFFFF;}
</style>
<g>
</g>
<path class="st0" d="M18.09,317.84L39,325.53c0.57,0.21,1.2,0.04,1.6-0.41l25.19-29.17c0.46-0.53,0.47-1.31,0.03-1.86L35.17,256
	c-0.93-1.16,0.27-2.8,1.66-2.26l4.48,1.75c0.41,0.16,0.88,0.12,1.26-0.1l14.91-8.72c0.41-0.24,0.9-0.26,1.33-0.07l76.68,34.94
	c0.69,0.32,1.51,0.04,1.88-0.63l8.94-16.55c0.23-0.42,0.64-0.7,1.11-0.75l28.97-3.27c0.66-0.07,1.18-0.58,1.27-1.24l1.69-11.8
	c0.09-0.61-0.22-1.21-0.77-1.49l-14.41-7.42c-0.63-0.32-0.93-1.06-0.72-1.73l3.27-10.21c0.2-0.62-0.04-1.3-0.59-1.66l-29.71-19.23
	c-1.12-0.72-0.75-2.44,0.56-2.65l33.45-5.28c0.39-0.06,0.79,0.04,1.11,0.28l11.1,8.54c0.7,0.54,1.73,0.33,2.15-0.45l4.22-7.68
	c0.27-0.48,0.23-1.08-0.08-1.53l-20.87-29.88c-0.31-0.44-0.35-1.02-0.1-1.49l2.96-5.76c0.35-0.68,1.16-0.97,1.86-0.67l30.04,12.8
	c1.4,0.6,2.66-1.09,1.68-2.26l-14.06-16.88c-0.79-0.94-0.12-2.38,1.11-2.38l0,0c1.09,0,1.79-1.15,1.29-2.11l-7.56-14.71
	c-0.19-0.37-0.21-0.81-0.06-1.2l5.36-13.4c0.22-0.55,0.75-0.91,1.35-0.91h50.43c0.51,0,0.98-0.27,1.24-0.7L254.4,99.4
	c0.14-0.23,0.21-0.49,0.21-0.75v-1.99c0-0.85,0.73-1.52,1.58-1.44l46.27,4.25c0.55,0.05,1.02,0.4,1.22,0.92l3.59,9.17
	c0.3,0.78,1.2,1.14,1.96,0.79l10.07-4.65c0.78-0.36,1.08-1.32,0.64-2.06l-4.98-8.29c-0.11-0.18-0.17-0.38-0.2-0.58l-3.82-33.44
	c-0.07-0.63-0.55-1.14-1.17-1.26l-13.63-2.56c-0.71-0.13-1.21-0.77-1.18-1.49l0.41-9.91c0.02-0.48,0.28-0.93,0.7-1.18l12.05-7.31
	c0.68-0.41,0.9-1.29,0.5-1.97l-8.93-15.31c-0.43-0.74-1.4-0.94-2.09-0.45l-23.8,16.94c-0.47,0.33-1.09,0.36-1.58,0.07l-14.31-8.5
	c-0.48-0.29-1.09-0.27-1.55,0.05l-12.44,8.44c-0.44,0.3-0.69,0.83-0.63,1.36l1.36,12.22c0.02,0.22,0,0.45-0.08,0.66l-3.1,8.41
	c-0.17,0.45-0.54,0.79-1.01,0.91l-18.8,4.7c-0.23,0.06-0.45,0.17-0.63,0.34l-5.31,4.87c-0.25,0.23-0.57,0.36-0.91,0.38l-41.21,1.89
	c-0.84,0.04-1.53-0.64-1.52-1.47l0.96-54.96c0.01-0.44-0.18-0.86-0.52-1.14L154.8,0.33c-0.53-0.44-1.31-0.45-1.85-0.01l-13.4,10.98
	c-0.5,0.41-0.67,1.1-0.41,1.7l19.13,44.22c0.63,1.45-1.18,2.71-2.33,1.63l-13.26-12.58c-0.56-0.53-1.44-0.53-2,0l-17.82,16.95
	c-0.75,0.71-0.53,1.96,0.42,2.38l25.84,11.33c0.33,0.15,0.6,0.41,0.75,0.75l7.95,18.24c0.18,0.4,0.16,0.87-0.05,1.26l-17.76,33.65
	c-0.42,0.8-1.47,1.02-2.18,0.46l-12.91-10.24c-0.1-0.08-0.19-0.17-0.27-0.28l-6.11-8.29c-0.43-0.58-0.36-1.38,0.14-1.89l7.72-7.72
	c0.49-0.49,0.57-1.27,0.17-1.84l-5.1-7.46c-0.4-0.58-1.15-0.79-1.79-0.5l-12.54,5.62c-0.48,0.22-0.81,0.67-0.85,1.2l-2.74,32
	c-0.08,0.98,0.8,1.75,1.76,1.54l19.89-4.42c0.36-0.08,0.74-0.02,1.06,0.17l11.73,7.04c0.14,0.08,0.26,0.18,0.36,0.3l21.55,25.38
	c0.41,0.48,0.46,1.16,0.13,1.7l-5.88,9.58c-0.18,0.3-0.47,0.52-0.81,0.63l-51.63,16c-0.5,0.16-1.05,0.03-1.43-0.34l-11.94-11.5
	c-0.5-0.49-1.28-0.54-1.85-0.13l-25.15,18.03c-0.15,0.11-0.28,0.25-0.38,0.4l-11.21,17.74c-0.17,0.28-0.44,0.49-0.75,0.59
	l-12.33,4.31c-0.78,0.27-1.62-0.16-1.86-0.94l-3.09-10.04c-0.24-0.79-1.1-1.22-1.88-0.94l-9.2,3.34c-0.21,0.07-0.39,0.2-0.54,0.35
	L4.61,226.67c-0.42,0.43-0.53,1.08-0.27,1.63l3.91,8.25c0.09,0.19,0.14,0.41,0.14,0.62v5.29c0,0.76-0.59,1.39-1.35,1.45l-3.95,0.28
	c-0.88,0.06-1.5,0.89-1.31,1.75l15.39,70.85C17.28,317.27,17.62,317.67,18.09,317.84z"/>
<g>
	<circle class="st0" cx="95.15" cy="221.56" r="14.82"/>
	<circle class="st1" cx="95.15" cy="221.56" r="8.47"/>
</g>
</svg>
