<?xml version="1.0" encoding="utf-8"?>
<!-- Generator: Adobe Illustrator 24.2.1, SVG Export Plug-In . SVG Version: 6.00 Build 0)  -->
<svg version="1.1" id="Layer_1" xmlns="http://www.w3.org/2000/svg" xmlns:xlink="http://www.w3.org/1999/xlink" x="0px" y="0px"
	 viewBox="0 0 300 300" style="enable-background:new 0 0 300 300;" xml:space="preserve">
<style type="text/css">
	.st0{opacity:0.4;fill:#FFFFFF;}
</style>
<path class="st0" d="M241.32,188.17c-1.81,13.89-6.51,26.39-17.22,36.03c-16.99,17.83-25.87,41.27-41.51,60.03
	c-6.33-1.43-12.35-3.79-18.42-6c-6.86,0.05-10.38-5.4-15.18-8.9c-7.19-5.23-14.35-11.68-24.45-6.64c-3.64-3.51-8.42-6.4-10.73-10.63
	c-15.18-27.84-40.63-38.45-69.96-42.98c-5.3-24.44-7-49.68-16.22-73.28c-1.25-3.2-2.71-7.6-1.5-10.28
	c12.19-26.94,19.12-56.33,37.03-80.63c4.88-7.63,11.91-10.53,20.07-10.93l8.74-2.33c20.16-12.66,38.9-15.07,54.47,7.14
	c1.04,2.07,2.08,4.14,3.12,6.21l3.06,2.99c11.65,10.53,25.9,14.09,41.44,12.25c20.61-2.43,38.22,3.91,54.5,15.68
	c3.49,11.48,2.92,23.7,6.42,35.17c3.21,12.77,18.1,17.48,21.07,30.42c-1.39,11.52-9.53,20.08-13.41,30.51
	c-1.47,1.63-3.36,2.64-5.33,3.5c-5.56,1.53-5.06,7.85-8.62,10.98L241.32,188.17z"/>
</svg>
